<?xml version="1.0" standalone="no"?>
<!DOCTYPE svg PUBLIC "-//W3C//DTD SVG 20010904//EN"
 "http://www.w3.org/TR/2001/REC-SVG-20010904/DTD/svg10.dtd">
<svg version="1.0" xmlns="http://www.w3.org/2000/svg"
 width="1248.000000pt" height="1248.000000pt" viewBox="0 0 1248.000000 1248.000000"
 preserveAspectRatio="xMidYMid meet">
<metadata>
Created by potrace 1.14, written by Peter Selinger 2001-2017
</metadata>
<g transform="translate(0.000000,1248.000000) scale(0.100000,-0.100000)"
fill="#000000" stroke="none">
<path d="M4112 10352 c-6 -30 -9 -59 -5 -65 3 -7 2 -8 -3 -4 -7 7 -38 -85 -49
-148 -2 -11 -4 -20 -5 -20 -3 0 -12 -39 -13 -57 -1 -10 -5 -18 -10 -18 -5 0
-7 -6 -4 -14 3 -8 3 -17 -1 -20 -3 -4 -7 -17 -9 -29 -2 -12 -7 -31 -12 -42 -9
-18 -18 -54 -24 -95 -2 -9 -6 -21 -11 -28 -4 -6 -5 -16 -2 -21 4 -5 2 -11 -4
-13 -5 -1 -11 -16 -14 -33 -2 -16 -6 -37 -9 -45 -6 -15 -43 -150 -50 -185 -2
-5 -6 -16 -10 -22 -5 -8 -3 -13 5 -13 9 0 10 -2 1 -8 -13 -8 -44 -118 -35
-126 3 -3 1 -6 -5 -6 -5 0 -10 -6 -11 -12 0 -7 -3 -24 -7 -38 -3 -14 -7 -29
-8 -35 -2 -5 -6 -16 -10 -22 -5 -7 -6 -13 -3 -13 3 0 -1 -17 -8 -37 -7 -21
-12 -46 -10 -56 1 -9 -2 -15 -7 -11 -5 3 -10 -6 -10 -20 -2 -34 -3 -39 -12
-54 -5 -7 -9 -26 -9 -42 -1 -18 -5 -27 -12 -23 -6 3 -8 3 -4 -1 3 -4 1 -28 -7
-52 -7 -24 -11 -44 -8 -44 3 0 0 -7 -7 -15 -7 -8 -9 -15 -5 -15 4 0 2 -6 -4
-13 -6 -8 -8 -17 -4 -20 3 -4 0 -13 -7 -22 -7 -8 -9 -15 -5 -15 4 0 2 -7 -5
-15 -7 -8 -10 -15 -7 -15 3 0 -1 -24 -10 -52 -15 -55 -32 -122 -38 -148 -2 -8
-4 -15 -6 -15 -1 0 -3 -10 -4 -23 -1 -13 -7 -33 -12 -45 -24 -52 -31 -87 -20
-87 9 0 9 -2 1 -8 -12 -7 -36 -82 -27 -82 3 0 1 -6 -4 -12 -6 -7 -9 -21 -8
-30 2 -10 0 -18 -5 -18 -4 0 -10 -12 -13 -27 -3 -16 -8 -37 -11 -48 -8 -31
-47 -178 -51 -195 -2 -8 -4 -15 -5 -15 -2 0 -10 -34 -15 -60 -2 -11 -4 -21 -5
-22 -2 -2 -3 -6 -4 -10 -1 -5 -4 -13 -8 -19 -8 -12 -20 -69 -22 -96 0 -10 -3
-18 -7 -18 -3 0 -12 -28 -20 -62 -7 -35 -14 -65 -15 -68 0 -3 -3 -12 -6 -20
-15 -42 -27 -94 -22 -102 3 -4 0 -8 -5 -8 -6 0 -10 -3 -10 -7 1 -5 0 -10 -1
-13 -3 -8 -10 -44 -13 -65 -2 -12 -7 -26 -11 -33 -4 -7 -9 -22 -11 -33 -3 -12
-11 -46 -20 -76 -9 -29 -13 -58 -10 -63 3 -6 1 -10 -5 -10 -6 0 -8 -4 -5 -10
3 -5 2 -10 -2 -10 -9 0 -16 -36 -16 -83 0 -20 -2 -24 -8 -15 -6 9 -9 6 -11
-12 -1 -14 -2 -32 -3 -40 0 -8 -5 -22 -10 -30 -5 -8 -11 -19 -12 -25 -1 -5 -7
-29 -13 -53 -6 -24 -7 -48 -4 -54 4 -7 2 -8 -4 -4 -7 4 -12 0 -13 -11 -1 -19
-4 -34 -8 -43 -2 -5 -5 -16 -15 -55 -2 -11 -9 -32 -15 -47 -6 -16 -9 -28 -6
-28 2 0 -2 -15 -10 -34 -8 -18 -11 -36 -8 -39 3 -4 0 -13 -7 -22 -7 -8 -10
-24 -7 -35 3 -11 2 -18 -2 -16 -10 7 -44 -131 -35 -145 4 -7 3 -9 -3 -6 -13 8
-38 -96 -28 -113 5 -8 4 -11 -2 -7 -7 4 -16 -14 -24 -46 -7 -28 -12 -54 -11
-57 0 -3 -4 -10 -9 -16 -5 -6 -10 -24 -11 -40 -1 -16 -5 -34 -9 -39 -4 -6 -10
-23 -13 -39 -6 -34 -14 -44 -24 -31 -8 11 -25 16 -59 19 -11 0 -19 4 -17 8 6
10 -34 20 -47 12 -8 -4 -9 -3 -5 4 5 8 0 12 -13 12 -11 0 -23 5 -26 10 -4 6
-10 8 -15 5 -5 -3 -12 0 -15 6 -4 5 -14 8 -22 5 -8 -3 -11 -1 -8 4 3 6 -2 10
-12 10 -11 0 -24 5 -31 12 -9 9 -12 9 -12 -2 0 -13 -2 -13 -10 0 -5 8 -13 15
-17 16 -4 0 -21 6 -38 13 -16 6 -42 16 -57 22 -15 6 -32 8 -38 4 -6 -3 -9 -3
-8 2 2 4 0 9 -5 10 -4 2 -23 9 -42 17 -19 8 -35 12 -35 8 0 -4 -4 -1 -9 6 -5
8 -20 15 -34 15 -14 1 -24 5 -22 8 2 3 -13 11 -33 18 -43 14 -63 22 -115 45
-21 9 -43 14 -48 11 -5 -4 -9 -2 -9 3 0 7 -117 54 -137 54 -4 0 -16 6 -26 13
-23 16 -76 3 -94 -22 -21 -27 -15 -67 12 -93 14 -13 25 -20 25 -16 0 5 11 1
25 -8 14 -9 25 -14 25 -10 0 3 11 -1 25 -10 13 -9 33 -16 43 -16 10 0 22 -4
28 -9 11 -10 86 -36 97 -33 4 1 7 -3 7 -10 0 -6 3 -9 6 -5 4 3 23 -2 43 -12
20 -11 38 -19 41 -19 10 -1 66 -22 83 -32 10 -6 22 -8 27 -5 6 4 10 1 10 -4 0
-6 6 -11 14 -11 12 0 80 -25 151 -55 74 -32 139 -54 147 -49 4 3 8 2 8 -3 0
-8 36 -26 79 -38 13 -4 40 -14 60 -23 20 -9 47 -17 61 -18 34 -3 34 -2 21 -18
-7 -8 -13 -30 -14 -49 -1 -19 -5 -33 -8 -31 -4 2 -10 -13 -14 -34 -4 -20 -10
-41 -13 -47 -3 -5 -7 -16 -8 -25 -4 -41 -16 -85 -24 -95 -6 -7 -5 -16 3 -25 7
-8 8 -11 1 -7 -14 8 -29 -57 -18 -75 4 -7 3 -8 -4 -4 -11 6 -17 -12 -13 -36 0
-5 -4 -8 -10 -8 -6 0 -9 -7 -6 -15 4 -8 2 -17 -4 -21 -6 -4 -7 -10 0 -17 7 -9
2 -12 -15 -12 -13 0 -24 3 -24 6 0 3 -18 5 -40 3 -22 -1 -42 2 -46 7 -3 5 -13
5 -25 -1 -10 -6 -19 -7 -19 -3 0 5 -28 10 -62 12 -35 2 -79 5 -98 7 -19 1 -73
6 -120 9 -134 11 -145 12 -150 14 -14 7 -62 6 -67 -2 -2 -4 -10 -4 -17 2 -6 5
-56 12 -111 15 -55 3 -100 5 -100 6 0 1 -17 3 -38 6 -28 3 -36 0 -31 -9 5 -7
1 -6 -10 2 -20 17 -176 25 -176 10 0 -6 -4 -8 -10 -4 -5 3 -16 -7 -24 -22 -12
-24 -12 -33 -1 -61 8 -17 19 -33 25 -33 14 -2 29 -6 33 -9 3 -3 41 -7 142 -14
44 -3 99 -8 121 -11 23 -2 72 -7 110 -9 38 -3 90 -7 116 -10 91 -9 154 -9 168
-1 9 5 11 4 6 -3 -5 -8 2 -11 23 -8 17 2 33 1 36 -3 4 -3 25 -7 48 -8 145 -9
192 -12 192 -13 0 -1 17 -3 37 -5 26 -2 36 1 31 9 -3 7 -1 6 8 -1 7 -7 21 -13
32 -13 10 0 15 -4 12 -10 -7 -12 -17 -49 -18 -72 -1 -10 -5 -18 -10 -18 -5 0
-7 -7 -4 -15 4 -8 2 -17 -3 -20 -4 -3 -7 -13 -6 -23 2 -9 -1 -20 -6 -23 -5 -3
-10 -20 -11 -37 -1 -18 -6 -32 -11 -32 -4 0 -6 -9 -3 -20 3 -11 1 -20 -4 -20
-5 0 -8 -3 -7 -7 1 -5 -6 -34 -15 -66 -10 -32 -15 -62 -12 -66 3 -5 0 -11 -5
-13 -6 -2 -12 -13 -12 -24 -2 -21 -25 -27 -93 -25 -11 0 -23 -5 -27 -12 -4 -7
-8 -7 -8 -2 0 9 -110 12 -130 5 -3 -1 -13 -1 -23 0 -10 1 -26 -4 -35 -12 -8
-7 -13 -8 -9 -2 7 12 -41 11 -318 -2 -66 -3 -142 -6 -170 -7 -27 -1 -56 -6
-62 -10 -7 -5 -13 -4 -13 1 0 5 -12 7 -27 5 -16 -2 -36 -4 -46 -4 -26 0 -57
-35 -61 -69 -2 -17 1 -30 5 -30 5 0 9 -6 9 -14 0 -16 40 -29 88 -28 17 0 33 1
35 2 1 1 29 2 62 3 33 1 65 5 71 9 6 4 14 5 17 1 7 -6 78 -5 237 4 41 2 81 3
88 3 30 0 42 0 136 5 56 3 106 11 115 18 10 8 13 9 8 0 -5 -9 7 -11 48 -8 30
2 58 -1 61 -6 3 -5 0 -9 -7 -9 -7 0 -10 -2 -7 -6 3 -3 0 -25 -8 -50 -7 -24
-10 -44 -6 -44 4 0 0 -5 -8 -10 -12 -8 -13 -11 -1 -19 10 -7 11 -9 1 -13 -8
-2 -14 -12 -16 -21 -3 -21 -31 -119 -48 -167 -7 -19 -12 -47 -11 -62 1 -16 -2
-25 -8 -21 -6 4 -8 -2 -5 -15 4 -12 2 -22 -4 -22 -6 0 -8 -6 -5 -14 3 -7 2
-17 -3 -22 -4 -5 -22 -65 -40 -134 -17 -69 -40 -154 -51 -190 -10 -36 -21 -77
-23 -92 -3 -15 -8 -33 -13 -40 -4 -7 -9 -22 -11 -33 -6 -32 -17 -65 -30 -89
-3 -5 1 -6 9 -1 12 7 12 6 1 -7 -7 -9 -14 -30 -15 -47 -1 -17 -5 -31 -8 -31
-3 0 -14 -30 -23 -67 -9 -36 -18 -69 -21 -71 -3 -3 -18 -5 -35 -4 -17 0 -30
-5 -30 -11 0 -8 -3 -9 -8 -1 -10 15 -145 15 -154 0 -6 -8 -8 -7 -8 2 0 6 -9
12 -21 12 -13 0 -18 -4 -13 -12 6 -10 4 -10 -7 -2 -19 15 -121 16 -112 0 5 -8
3 -8 -8 0 -19 15 -121 16 -112 0 5 -8 3 -8 -8 0 -19 15 -121 16 -112 0 5 -8 3
-8 -8 0 -19 15 -121 16 -112 0 5 -8 3 -8 -8 0 -19 15 -121 16 -112 0 5 -8 3
-8 -8 0 -20 16 -122 16 -112 1 5 -9 3 -9 -8 -1 -19 15 -121 16 -112 0 5 -8 3
-8 -8 0 -19 15 -121 16 -112 0 5 -8 3 -8 -8 0 -21 16 -82 18 -73 2 6 -10 4
-10 -7 -2 -19 15 -121 16 -112 0 5 -8 3 -8 -8 0 -19 15 -201 16 -192 0 5 -8 3
-8 -8 0 -19 15 -121 16 -112 0 5 -8 3 -8 -8 0 -19 15 -121 16 -112 0 5 -8 3
-8 -8 0 -21 16 -82 18 -73 2 6 -10 4 -10 -7 -2 -19 15 -121 16 -112 0 4 -6 0
-6 -9 2 -22 18 -65 5 -85 -25 -13 -19 -14 -29 -4 -49 6 -14 15 -23 20 -20 5 4
11 1 13 -6 4 -10 233 -13 1054 -15 577 -2 1230 -4 1451 -5 265 -2 399 0 395 7
-3 6 0 6 9 -1 8 -5 46 -10 84 -9 l70 1 1 -86 c2 -104 7 -160 15 -160 3 0 6
-10 7 -22 2 -24 9 -70 12 -78 1 -3 2 -9 1 -14 -1 -5 6 -5 16 -2 14 6 15 5 6
-5 -9 -9 -9 -18 2 -39 8 -15 11 -30 8 -34 -4 -3 -1 -6 5 -6 7 0 11 -3 10 -7
-4 -12 26 -73 34 -73 5 0 8 -9 8 -20 0 -11 5 -20 10 -20 6 0 10 -7 10 -15 0
-9 6 -18 14 -21 9 -3 12 -12 9 -21 -4 -11 -2 -14 5 -9 7 4 12 2 12 -6 1 -16
70 -94 81 -90 5 1 8 -3 7 -8 -4 -13 102 -109 120 -110 6 0 12 -4 12 -9 0 -5
14 -14 30 -21 17 -7 30 -16 30 -21 0 -5 9 -9 20 -9 11 0 20 -5 20 -11 0 -6 9
-9 20 -6 11 3 18 1 15 -4 -7 -10 54 -37 93 -41 15 -2 30 -6 33 -11 3 -4 19 -9
35 -11 16 -3 47 -8 69 -14 32 -7 147 -8 288 -2 9 1 17 5 17 9 0 5 11 7 25 6
14 -2 27 1 31 6 3 5 10 7 15 3 6 -3 17 2 25 12 9 11 13 13 9 7 -3 -7 -4 -13
-2 -13 13 0 139 52 173 70 75 42 109 63 119 74 6 6 23 19 38 29 15 10 25 23
21 29 -4 6 -3 8 2 5 19 -12 129 106 117 126 -3 5 -2 7 4 4 11 -7 45 28 36 37
-4 3 -1 6 5 6 7 0 12 5 12 11 0 6 7 17 15 26 8 8 13 19 10 24 -4 5 -2 9 3 9 9
0 25 37 23 52 -1 5 4 8 10 8 5 0 7 5 4 10 -3 5 -2 10 3 10 8 0 43 97 48 135 1
11 3 20 4 20 5 0 23 104 24 140 1 17 5 36 9 43 5 6 4 12 -2 12 -9 0 -6 44 5
61 2 4 0 10 -6 14 -21 13 1 23 45 20 25 -1 45 2 45 7 0 7 4 7 13 0 14 -11 46
-10 66 3 9 5 12 4 8 -2 -4 -6 14 -10 48 -9 30 1 55 6 55 11 0 7 3 7 8 0 10
-14 84 -16 75 -2 -4 6 -1 7 8 2 18 -12 89 -12 113 -2 11 6 16 5 13 -1 -4 -5
16 -9 48 -8 30 1 55 6 55 11 0 7 3 7 8 0 10 -14 84 -16 75 -2 -4 6 -1 7 7 2
18 -11 180 -12 173 -1 -4 5 0 6 8 1 19 -12 159 -13 152 -1 -4 5 -1 6 8 0 19
-11 399 -12 391 0 -3 5 1 6 9 1 21 -14 60 -15 53 -3 -5 7 -2 8 6 3 19 -12 340
-13 333 -1 -4 5 0 6 8 1 19 -12 159 -13 152 -1 -4 5 -1 6 8 0 20 -12 81 -12
98 0 11 8 13 8 8 0 -4 -8 11 -11 48 -10 30 1 55 6 55 11 0 7 3 7 8 0 10 -14
84 -16 75 -2 -4 6 -1 7 8 1 8 -4 51 -8 97 -7 89 2 89 1 82 -61 -1 -10 4 -23
12 -27 9 -6 10 -9 1 -9 -9 0 -11 -14 -7 -47 3 -27 5 -56 5 -66 0 -9 3 -16 7
-13 4 2 8 -17 8 -42 1 -30 7 -50 18 -58 13 -9 14 -13 4 -18 -10 -5 -10 -7 0
-12 6 -3 10 -9 7 -14 -3 -4 4 -29 15 -54 11 -26 20 -50 21 -54 1 -8 32 -65 39
-72 3 -3 11 -17 19 -32 8 -15 22 -37 33 -47 10 -11 18 -23 18 -27 0 -15 140
-145 149 -140 6 4 9 1 6 -6 -4 -13 105 -89 169 -116 17 -8 43 -20 59 -29 15
-8 32 -11 37 -8 6 3 10 1 10 -4 0 -6 11 -11 25 -11 14 0 25 -4 25 -10 0 -5 15
-8 34 -6 19 1 33 -1 30 -6 -3 -4 5 -9 18 -9 13 -1 34 -4 48 -6 40 -7 231 -7
275 -1 22 4 58 12 80 18 22 6 49 13 60 15 33 8 137 56 146 68 3 5 8 7 10 6 7
-5 69 35 69 44 0 4 5 5 12 1 7 -5 9 -2 5 9 -4 11 -2 14 9 10 18 -7 167 142
210 208 46 72 74 126 67 133 -4 3 -2 6 3 6 11 0 42 65 49 99 2 12 6 25 9 29 3
5 7 19 10 33 3 13 8 35 11 49 4 14 8 35 9 47 1 12 5 25 9 29 3 4 2 16 -4 27
-6 11 -7 17 -1 13 6 -3 10 27 11 77 1 45 7 86 13 92 7 7 9 7 5 -1 -8 -14 85
-13 95 1 5 7 8 7 8 0 0 -5 18 -10 40 -11 25 0 37 3 33 10 -5 8 -2 8 8 0 21
-16 1012 -17 1002 -1 -5 9 -3 9 8 1 20 -15 201 -16 192 -1 -5 9 -3 9 8 1 20
-15 161 -16 152 -1 -5 9 -3 9 8 1 20 -16 441 -16 432 0 -5 8 -3 8 8 0 20 -16
801 -16 792 0 -4 7 -1 6 8 -1 8 -6 21 -11 29 -9 28 6 50 18 45 26 -3 4 1 10 8
13 8 3 13 16 11 29 -1 12 -3 28 -3 33 -1 6 -11 17 -23 25 -27 17 -221 23 -211
7 4 -6 1 -7 -8 -1 -20 12 -320 13 -312 1 4 -6 1 -7 -8 -1 -20 12 -169 12 -169
-1 0 -5 -5 -2 -11 8 -7 12 -15 15 -22 9 -7 -5 -29 -8 -49 -7 -21 1 -38 -3 -38
-9 0 -8 -3 -8 -8 -1 -10 14 -183 15 -175 1 5 -8 2 -8 -8 0 -8 6 -56 10 -116 9
-66 0 -103 3 -103 10 0 7 -3 7 -8 0 -8 -12 -81 -14 -98 -3 -6 4 -14 4 -18 0
-12 -11 -156 -9 -156 3 0 7 -3 7 -8 -1 -4 -6 -36 -10 -74 -9 -42 1 -68 -3 -68
-9 0 -6 -5 -4 -10 4 -5 8 -10 11 -10 5 0 -5 -5 -3 -10 5 -5 8 -10 10 -10 4 0
-6 -17 -10 -40 -9 -23 1 -40 -3 -40 -9 0 -8 -2 -8 -8 0 -4 6 -37 10 -80 9 -84
-1 -80 -5 -107 100 -9 39 -20 77 -23 85 -3 8 -6 22 -7 32 -1 9 -6 25 -10 35
-5 10 -10 31 -12 48 -3 16 -10 33 -16 37 -7 4 -9 8 -5 8 3 0 2 16 -4 36 -13
50 -19 77 -20 92 -1 6 -5 12 -10 12 -4 0 -7 3 -7 8 4 25 -2 42 -13 36 -10 -5
-10 -4 -1 6 9 10 9 19 -2 40 -8 15 -12 30 -9 32 2 3 -3 21 -11 41 -8 20 -15
40 -15 44 -1 34 -15 83 -23 83 -6 0 -8 3 -5 6 4 3 -2 35 -12 72 -10 36 -16 70
-14 74 3 4 1 8 -4 8 -5 0 -9 6 -10 13 -1 15 -22 96 -30 117 -8 23 -9 28 -11
51 0 11 -4 18 -8 16 -5 -3 -9 10 -9 28 -1 19 -5 42 -9 52 -10 23 -12 29 -14
49 0 8 -5 13 -10 10 -5 -4 -7 2 -4 13 4 15 12 18 44 15 29 -3 38 0 33 9 -6 9
-4 9 7 1 14 -11 41 -14 199 -18 41 -1 82 -6 89 -11 10 -6 12 -4 6 5 -6 9 -4
11 5 5 19 -12 99 -12 92 0 -3 5 1 5 9 -1 8 -6 48 -13 89 -14 41 -1 118 -4 170
-5 52 -2 97 -4 100 -5 3 -1 25 -2 50 -1 55 1 83 26 82 72 -1 35 -36 73 -59 64
-7 -2 -13 1 -13 7 0 7 -5 6 -15 -2 -10 -9 -15 -9 -15 -1 0 13 -22 10 -32 -4
-5 -7 -8 -7 -8 0 0 6 -28 11 -62 13 -35 1 -111 3 -169 6 -59 2 -111 6 -117 10
-6 3 -13 2 -17 -4 -4 -6 -11 -7 -17 -4 -6 4 -52 8 -102 10 -268 9 -347 13
-356 19 -5 3 -10 2 -10 -4 0 -22 -26 1 -28 25 -1 15 -9 47 -18 73 -18 52 -22
68 -23 94 -1 10 -4 16 -8 14 -5 -3 -9 9 -10 25 -1 17 -7 36 -13 43 -5 6 -7 14
-4 18 5 4 -14 82 -34 137 -3 8 -4 19 -3 24 1 4 -4 15 -11 24 -9 10 -9 13 -1 9
6 -4 14 -3 17 1 3 5 16 7 30 5 13 -3 34 0 46 7 18 10 21 9 15 -1 -6 -9 -3 -10
11 -4 10 4 43 8 72 9 28 0 52 3 52 6 0 3 28 6 63 6 34 1 94 5 132 8 108 11
153 14 250 21 100 7 130 11 144 19 5 4 12 2 16 -4 4 -6 11 -8 16 -4 9 5 45 9
175 18 66 4 92 19 102 59 6 24 5 37 -7 53 -9 12 -19 20 -22 18 -4 -2 -10 3
-13 12 -3 8 -11 12 -17 9 -9 -6 -136 -17 -184 -16 -10 0 -26 -5 -34 -12 -8 -7
-12 -7 -9 -2 4 6 -12 9 -43 7 -33 -3 -47 -8 -43 -15 5 -9 4 -9 -4 -2 -14 13
-94 7 -86 -7 3 -5 -4 -4 -15 4 -18 11 -23 11 -31 -2 -5 -8 -10 -10 -10 -4 0 6
-10 10 -22 8 -13 -1 -29 -3 -36 -3 -8 -1 -10 -6 -6 -13 6 -10 4 -10 -7 -2 -11
8 -74 12 -74 4 0 -1 -25 -3 -55 -5 -30 -1 -95 -6 -145 -10 -49 -4 -106 -9
-125 -11 -187 -15 -214 -15 -201 -1 8 11 9 17 1 22 -6 3 -8 11 -5 16 4 5 1 9
-5 9 -6 0 -9 4 -6 9 4 5 0 12 -6 14 -9 4 -9 6 -1 6 11 1 9 12 -15 81 -3 8 -7
25 -8 37 -2 12 -7 31 -13 41 -6 11 -7 22 -4 26 3 3 1 6 -5 6 -6 0 -9 6 -6 14
3 8 0 17 -5 21 -6 3 -9 10 -7 14 3 4 -2 30 -10 57 -28 90 -35 126 -24 119 5
-3 11 -1 15 5 4 6 11 8 16 5 5 -4 9 -2 9 2 0 5 10 9 22 10 11 1 25 8 29 15 5
7 9 10 9 5 0 -4 13 -1 29 8 17 8 40 17 53 19 13 2 22 8 21 13 -1 6 9 8 22 5
16 -3 25 0 25 8 0 7 7 10 15 6 8 -3 15 -1 15 4 0 5 12 10 28 12 19 2 27 8 26
21 -1 13 1 15 10 8 15 -13 58 -2 49 12 -3 5 -1 7 5 3 6 -3 23 -1 39 6 15 6 30
12 33 12 30 7 100 41 100 48 0 5 5 6 10 3 6 -4 26 -1 46 5 31 10 33 14 22 28
-11 15 -11 15 3 5 12 -10 23 -10 50 0 19 6 36 14 39 17 3 3 12 6 20 8 35 7
186 67 192 76 4 6 8 8 8 3 0 -11 63 23 77 42 6 9 9 19 7 23 -3 5 -7 18 -9 30
-10 52 -56 63 -133 33 -25 -11 -39 -22 -35 -29 4 -8 3 -8 -6 0 -9 9 -22 7 -49
-6 -20 -10 -40 -16 -44 -13 -5 2 -8 -1 -8 -6 0 -6 -7 -11 -16 -11 -9 0 -30 -6
-47 -14 -18 -8 -54 -22 -82 -32 -27 -9 -54 -20 -60 -24 -5 -3 -30 -12 -55 -20
-25 -7 -49 -17 -54 -22 -6 -4 -18 -8 -28 -8 -10 0 -18 -5 -18 -11 0 -5 -4 -8
-8 -5 -5 3 -19 -1 -33 -7 -13 -7 -43 -19 -66 -26 -23 -8 -40 -17 -38 -22 3 -4
-5 -5 -17 -1 -13 3 -19 1 -15 -5 5 -7 0 -9 -13 -6 -12 3 -20 0 -20 -8 0 -7 -2
-10 -5 -7 -11 10 -130 -40 -127 -54 3 -10 1 -10 -9 -1 -13 13 -42 6 -33 -8 3
-5 -2 -6 -10 -3 -9 3 -16 1 -16 -6 0 -6 -5 -8 -11 -4 -6 3 -15 0 -20 -7 -7
-11 -9 -10 -10 4 -1 17 -4 29 -9 45 -1 4 -2 10 -1 14 0 4 -6 26 -15 50 -9 24
-17 52 -19 63 -2 11 -6 29 -9 40 -2 11 -5 26 -5 33 -1 7 -4 11 -8 9 -5 -3 -9
8 -10 24 -3 47 -6 59 -14 59 -4 0 -7 6 -6 13 1 35 -4 58 -12 52 -5 -3 -13 0
-17 6 -4 8 -3 9 4 5 7 -4 12 -4 12 0 0 8 -20 82 -28 104 -3 8 -4 21 -3 28 1 6
-3 12 -9 12 -6 0 -9 4 -6 9 3 5 -2 33 -11 62 -9 30 -16 58 -14 63 1 4 -4 14
-10 22 -6 8 -9 14 -5 14 3 0 1 11 -4 25 -5 14 -12 38 -15 53 -3 15 -8 34 -10
42 -2 8 -4 19 -4 23 -1 5 -5 6 -9 3 -4 -2 -7 11 -7 30 1 19 -2 37 -7 40 -4 3
-8 14 -8 25 0 10 -6 19 -12 19 -9 0 -8 4 2 10 11 7 12 12 4 18 -7 4 -17 34
-25 67 -7 33 -18 63 -23 67 -6 4 -8 8 -5 8 6 0 1 29 -16 93 -15 53 -17 64 -22
89 -3 15 -8 26 -12 24 -4 -3 -8 12 -8 32 -1 20 -6 38 -12 40 -6 2 -8 8 -5 13
3 6 0 17 -8 26 -11 14 -11 16 2 8 12 -7 13 -6 3 7 -7 8 -10 18 -6 21 3 4 1 7
-4 7 -6 0 -10 8 -8 18 1 9 -4 28 -12 41 -10 16 -11 21 -2 16 9 -6 10 -4 3 6
-5 8 -9 17 -10 22 -1 4 -3 9 -4 12 -1 3 -4 10 -5 15 -1 6 -4 13 -5 18 -4 14
-7 27 -8 45 -1 10 -6 16 -10 13 -4 -2 -7 8 -6 22 1 15 -1 32 -5 37 -3 6 -7 19
-8 29 -2 11 -10 33 -18 48 -7 16 -9 26 -4 23 6 -4 6 3 0 17 -5 13 -14 43 -21
68 -7 25 -17 61 -24 80 -6 19 -11 40 -12 45 -1 6 -3 12 -4 15 -1 3 -3 16 -6
30 -2 14 -7 32 -11 40 -7 18 -13 39 -15 63 -1 9 -5 17 -8 17 -3 0 -7 10 -7 23
-4 41 -13 68 -23 62 -5 -3 -7 0 -4 8 7 19 -15 100 -30 109 -8 6 -7 8 2 8 7 0
10 5 6 11 -5 9 -20 57 -39 129 -2 8 -13 49 -25 90 -28 100 -28 102 -29 123 -1
10 -4 16 -8 14 -5 -3 -8 5 -9 16 -2 39 -13 82 -23 85 -6 2 -7 10 -5 17 5 12
-5 57 -23 105 -3 8 -8 24 -10 35 -6 28 -9 38 -16 55 -4 8 -8 29 -10 45 -3 17
-9 29 -15 28 -6 -2 -9 4 -5 13 5 13 -6 61 -25 114 -3 8 -7 28 -9 44 -2 17 -6
32 -11 35 -4 3 -8 17 -10 31 -1 14 -5 32 -9 40 -7 17 -9 23 -16 60 -3 14 -11
41 -17 60 -5 19 -13 48 -16 64 -2 16 -8 34 -11 40 -4 5 -8 21 -9 34 -2 13 -7
29 -11 35 -5 7 -9 24 -8 40 0 15 -2 27 -6 27 -4 0 -10 17 -14 37 -4 21 -10 42
-13 48 -7 10 -8 16 -10 48 -1 10 -5 16 -9 14 -5 -3 -9 13 -10 36 -2 22 -6 43
-10 46 -5 3 -9 15 -10 26 -5 49 -29 125 -37 118 -5 -4 -6 -2 -2 5 4 7 0 38
-10 70 -10 31 -16 63 -15 70 1 6 -3 12 -9 12 -5 0 -9 3 -9 8 4 22 -2 42 -11
37 -6 -4 -8 -11 -5 -16 4 -5 3 -15 -2 -21 -8 -13 -13 -33 -15 -55 -1 -7 -5
-13 -10 -13 -5 0 -8 -6 -7 -12 1 -7 -1 -22 -5 -33 -4 -11 -12 -32 -18 -47 -5
-15 -7 -32 -2 -39 4 -7 3 -10 -3 -6 -8 5 -24 -30 -40 -90 -7 -29 -10 -39 -17
-55 -4 -9 -9 -25 -11 -35 -2 -10 -4 -19 -5 -20 -2 -2 -3 -6 -5 -10 -1 -5 -4
-15 -8 -23 -3 -8 -15 -46 -27 -85 -11 -38 -25 -78 -31 -88 -5 -10 -7 -22 -4
-27 4 -6 1 -10 -4 -10 -6 0 -10 -3 -9 -7 3 -11 -34 -126 -45 -140 -6 -9 -5
-18 3 -29 10 -11 10 -14 1 -12 -13 3 -50 -89 -44 -109 3 -7 1 -13 -4 -13 -13
0 -36 -87 -27 -101 5 -8 3 -9 -6 -4 -10 6 -12 3 -8 -13 4 -12 3 -20 -2 -17 -7
5 -23 -32 -21 -48 1 -4 -6 -21 -14 -37 -8 -16 -14 -33 -13 -37 0 -4 -4 -21
-10 -36 -7 -16 -12 -34 -12 -41 0 -6 -4 -16 -8 -22 -8 -8 -34 -86 -37 -109 -1
-5 -7 -23 -13 -38 -7 -16 -10 -33 -6 -38 3 -5 0 -9 -6 -9 -7 0 -10 -6 -7 -14
3 -8 2 -16 -3 -18 -5 -2 -11 -14 -14 -28 -2 -14 -5 -26 -7 -27 -1 -2 -2 -7 -3
-12 0 -5 -4 -13 -8 -17 -5 -4 -8 -18 -8 -31 0 -12 -5 -23 -12 -23 -6 0 -8 -3
-5 -6 3 -4 2 -16 -4 -27 -6 -11 -7 -17 -1 -13 5 3 0 -12 -10 -34 -11 -21 -21
-47 -23 -57 -2 -10 -4 -19 -5 -20 -2 -2 -4 -7 -5 -13 -1 -5 -4 -12 -5 -15 -1
-3 -3 -8 -4 -12 -1 -5 -8 -25 -15 -45 -7 -21 -10 -48 -6 -60 5 -17 4 -19 -3
-9 -8 11 -13 4 -23 -30 -7 -24 -13 -48 -14 -54 0 -5 -4 -13 -9 -16 -5 -4 -9
-20 -10 -37 0 -17 -4 -28 -8 -25 -5 2 -8 1 -9 -4 0 -4 -3 -17 -5 -28 -3 -11
-6 -27 -8 -35 -1 -8 -8 -26 -15 -39 -7 -12 -11 -32 -8 -42 3 -10 2 -17 -2 -14
-4 2 -18 -28 -30 -68 -13 -40 -30 -87 -38 -105 -8 -19 -12 -36 -9 -39 3 -4 1
-11 -4 -18 -5 -6 -12 -22 -14 -36 -3 -13 -5 -26 -6 -29 -2 -3 -2 -8 -2 -11 2
-10 -102 31 -109 43 -3 5 -10 10 -15 9 -16 0 -57 12 -83 25 -13 7 -28 11 -33
8 -4 -3 -8 0 -8 5 0 6 -10 11 -23 11 -13 0 -27 4 -33 10 -5 5 -22 11 -37 12
-15 1 -27 6 -27 10 0 4 -3 7 -7 7 -5 -1 -10 0 -13 1 -3 1 -12 3 -20 5 -8 2
-62 16 -120 31 -58 14 -120 27 -137 28 -18 0 -33 4 -33 9 0 4 -12 7 -27 6 -16
0 -39 2 -53 6 -41 11 -74 11 -89 0 -11 -7 -13 -7 -7 3 5 8 -1 12 -21 13 -40 1
-141 8 -185 12 -25 3 -35 0 -31 -7 3 -6 0 -5 -8 2 -15 14 -33 17 -25 4 6 -10
-25 -9 -41 1 -7 5 -22 3 -34 -4 -13 -6 -19 -7 -15 -1 7 12 -32 10 -51 -1 -6
-4 -14 -3 -17 1 -3 5 -22 8 -43 6 -21 -2 -67 -6 -103 -9 -36 -3 -85 -8 -110
-12 -75 -11 -83 -12 -134 -17 -27 -3 -52 -9 -55 -13 -3 -5 -17 -8 -31 -9 -24
-1 -42 -5 -100 -19 -14 -4 -36 -9 -50 -12 -14 -2 -34 -8 -45 -13 -16 -6 -125
-40 -145 -45 -40 -10 -90 -30 -90 -36 0 -5 -7 -6 -15 -3 -8 4 -15 1 -15 -5 0
-6 -6 -11 -14 -11 -14 0 -118 -41 -126 -50 -13 -14 -26 -6 -28 17 -1 13 -5 30
-9 36 -9 13 -10 19 -12 46 0 11 -7 26 -14 33 -7 7 -12 20 -12 28 1 8 -7 32
-17 53 -10 20 -16 37 -13 37 3 0 -2 16 -10 36 -8 20 -15 45 -15 55 0 11 -4 19
-8 19 -4 0 -8 10 -9 22 -1 11 -6 24 -10 27 -4 3 -9 17 -11 31 -1 14 -6 34 -11
45 -12 26 -50 142 -57 175 -3 14 -14 44 -24 67 -10 23 -16 44 -12 47 3 3 0 6
-7 6 -7 0 -10 4 -7 8 6 11 -49 184 -56 176 -3 -3 -5 1 -5 8 3 24 -25 118 -33
113 -4 -3 -7 1 -6 8 2 23 -26 117 -34 112 -5 -3 -7 2 -6 11 1 9 -12 59 -31
112 -18 52 -33 104 -33 114 0 10 -4 18 -10 18 -5 0 -9 3 -9 8 3 19 -2 43 -8
39 -5 -3 -9 5 -9 16 -2 26 -8 49 -15 62 -3 6 -14 40 -25 78 -14 49 -23 66 -33
62 -10 -4 -11 -2 -3 8 12 14 5 60 -8 52 -5 -3 -6 4 -3 15 3 11 1 20 -4 20 -5
0 -9 8 -10 18 -1 15 -74 242 -90 282 -3 8 -5 19 -4 24 1 4 -2 13 -7 20 -5 6
-15 32 -22 58 -7 26 -16 46 -20 43 -4 -2 -5 7 -2 20 2 15 0 25 -7 25 -6 0 -10
3 -10 8 4 24 -2 42 -13 36 -7 -4 -8 -3 -4 5 12 18 -2 63 -17 55 -9 -5 -9 -4
-1 5 12 13 -3 61 -19 61 -5 0 -6 4 -3 8 7 12 -15 93 -24 87 -4 -2 -6 7 -4 20
1 14 -2 25 -6 25 -5 0 -10 12 -12 28 -2 21 -6 16 -16 -26z m255 -827 c0 -8 -4
-12 -9 -9 -5 3 -6 10 -3 15 9 13 12 11 12 -6z m154 -498 c-10 -9 -11 -8 -5 6
3 10 9 15 12 12 3 -3 0 -11 -7 -18z m86 -152 c0 -8 -4 -12 -9 -9 -5 3 -6 10
-3 15 9 13 12 11 12 -6z m176 -550 c-3 -9 -8 -14 -10 -11 -3 3 -2 9 2 15 9 16
15 13 8 -4z m2744 -330 c0 -8 -4 -12 -9 -9 -5 3 -6 10 -3 15 9 13 12 11 12 -6z
m1453 -289 c0 -2 -8 -10 -17 -17 -16 -13 -17 -12 -4 4 13 16 21 21 21 13z
m-5773 -891 c0 -8 -4 -12 -9 -9 -5 3 -6 10 -3 15 9 13 12 11 12 -6z m6088
-275 c3 -6 -1 -7 -9 -4 -18 7 -21 14 -7 14 6 0 13 -4 16 -10z m395 -534 c0 -2
-7 -7 -16 -10 -8 -3 -12 -2 -9 4 6 10 25 14 25 6z m-39 -83 c13 -16 12 -17 -3
-4 -10 7 -18 15 -18 17 0 8 8 3 21 -13z m-6570 -56 c-10 -9 -11 -8 -5 6 3 10
9 15 12 12 3 -3 0 -11 -7 -18z m6414 -27 c3 -6 -1 -7 -9 -4 -18 7 -21 14 -7
14 6 0 13 -4 16 -10z m-6280 -80 c-3 -5 -12 -10 -18 -10 -7 0 -6 4 3 10 19 12
23 12 15 0z m-325 -80 c0 -5 -2 -10 -4 -10 -3 0 -8 5 -11 10 -3 6 -1 10 4 10
6 0 11 -4 11 -10z m5831 -127 c13 -16 12 -17 -3 -4 -10 7 -18 15 -18 17 0 8 8
3 21 -13z m889 -227 c0 -2 -7 -7 -16 -10 -8 -3 -12 -2 -9 4 6 10 25 14 25 6z
m995 -35 c3 -5 2 -12 -3 -15 -5 -3 -9 1 -9 9 0 17 3 19 12 6z m-8395 -51 c0
-5 -2 -10 -4 -10 -3 0 -8 5 -11 10 -3 6 -1 10 4 10 6 0 11 -4 11 -10z m7391
-13 c-10 -9 -11 -8 -5 6 3 10 9 15 12 12 3 -3 0 -11 -7 -18z m-151 -28 c0 -5
-4 -9 -8 -9 -5 0 -9 7 -9 15 0 8 4 12 9 9 4 -3 8 -9 8 -15z m-399 -36 c13 -16
12 -17 -3 -4 -10 7 -18 15 -18 17 0 8 8 3 21 -13z m-6408 -358 c-3 -9 -8 -14
-10 -11 -3 3 -2 9 2 15 9 16 15 13 8 -4z m808 -122 c13 -16 12 -17 -3 -4 -17
13 -22 21 -14 21 2 0 10 -8 17 -17z m5439 13 c0 -2 -8 -10 -17 -17 -16 -13
-17 -12 -4 4 13 16 21 21 21 13z m-6800 -52 c0 -8 -19 -13 -24 -6 -3 5 1 9 9
9 8 0 15 -2 15 -3z m8471 -57 c-10 -9 -11 -8 -5 6 3 10 9 15 12 12 3 -3 0 -11
-7 -18z m-1511 -1 c0 -2 -7 -7 -16 -10 -8 -3 -12 -2 -9 4 6 10 25 14 25 6z
m-6202 -31 c-3 -3 -9 2 -12 12 -6 14 -5 15 5 6 7 -7 10 -15 7 -18z m7682 21
c0 -2 -8 -10 -17 -17 -16 -13 -17 -12 -4 4 13 16 21 21 21 13z m200 -1370 c0
-2 -7 -7 -16 -10 -8 -3 -12 -2 -9 4 6 10 25 14 25 6z m370 -2 c0 -8 -19 -13
-24 -6 -3 5 1 9 9 9 8 0 15 -2 15 -3z m800 0 c0 -8 -19 -13 -24 -6 -3 5 1 9 9
9 8 0 15 -2 15 -3z m-10610 -28 c0 -2 -8 -10 -17 -17 -16 -13 -17 -12 -4 4 13
16 21 21 21 13z m9831 -23 c13 -16 12 -17 -3 -4 -10 7 -18 15 -18 17 0 8 8 3
21 -13z m320 0 c13 -16 12 -17 -3 -4 -10 7 -18 15 -18 17 0 8 8 3 21 -13z
m480 0 c13 -16 12 -17 -3 -4 -10 7 -18 15 -18 17 0 8 8 3 21 -13z"/>
</g>
</svg>
